<?xml version="1.0" encoding="UTF-8" standalone="no"?>
<!-- Created with Inkscape (http://www.inkscape.org/) -->
<svg
	xmlns="http://www.w3.org/2000/svg"
	version="1.1"
	width="1070"
	height="309">
	<defs />
	<path
	d="m 823.875,-0.03125 0,184 -823.84375,0 0,7.40625 823.84375,0 0,117.71875 7.40625,0 0,-117.71875 238.81255,0 0,-7.40625 -238.81255,0 0,-184 -7.40625,0 z m 182.5863,27.4375 63.3438,85.6875 -42.125,0 31.5312,42.65625 -53.5312,0 -31.25003,-42.25 20.53125,0 -31.34375,-42.40625 32.3125,0 -32.3125,-43.6875 42.84373,0 z M 481.78125,67.375 c -13.31876,0 -23.05881,3.84914 -30.03125,17.125 0,-1.974 0.125,-12.2391 0.125,-14.96875 l -39.875,0 0,86.375 41.78125,0 0,-53.625 c 0,-4.29369 3.45631,-7.75 7.75,-7.75 4.29369,0 7.75,3.45631 7.75,7.75 l 0,53.625 41.125,0 0,-53.4375 0.0625,-0.1875 c 0,-4.29369 3.45631,-7.75 7.75,-7.75 4.29369,0 7.75,3.45631 7.75,7.75 l 0,53.625 41.125,0 0,-62.34375 c 0,-16.91069 -12.19156,-26.1875 -28.625,-26.1875 -13.09995,0 -22.70871,3.744704 -29.65625,16.5 -3.7821,-10.734242 -14.07158,-16.5 -27.03125,-16.5 z m -124.9375,-35.8125 0,28.78125 42.0625,0 0,-28.78125 -42.0625,0 z m 0,38.59375 0,85.75 42.0625,0 0,-85.75 -42.0625,0 z m -113.90625,-0.625 0,86.375 41.78125,0 0,-53.625 c 0,-4.293686 3.45631,-7.75 7.75,-7.75 4.29369,0 7.75,3.456314 7.75,7.75 l 0,53.625 41.125,0 0,-62.346752 c 0,-16.910684 -12.18224,-26.192214 -28.61568,-26.192214 -13.31876,0 -23.05857,3.871805 -30.03101,17.147662 0,-1.973995 0.122,-12.254045 0.122,-14.983696 l -39.88156,0 z m 384.25,-1.65625 c -0.84863,-0.0096 -1.71424,0.01714 -2.59375,0.03125 -56.28889,0.90303 -49.375,43.92878 -49.375,50.25 0,6.32121 5.43597,38.32159 55.09375,39.4375 26.7899,0.60202 36.71875,-5.125 36.71875,-5.125 l 0,-21.65625 c -1.80606,2.70909 -51.75827,13.82898 -51.15625,-7.84375 l 57.5,0 c 0,-7.40767 7.27599,-54.4858 -46.1875,-55.09375 z M 626.5,88.1875 c 6.55162,0 11.875,7.214795 11.875,16.125 0,0.11542 0.002,0.22891 0,0.34375 l -23.71875,0 c -0.002,-0.11484 0,-0.22833 0,-0.34375 0,-8.910205 5.29213,-16.125 11.84375,-16.125 z m 117.71875,-56.15625 0,48.5 c -4.01542,-5.356731 -11.91167,-13.028824 -24.4375,-13.09375 -16.8554,-0.08737 -38.1875,6.720381 -38.1875,46.4375 0,39.71712 23.18395,44.4111 37.84375,44.25 17.28294,-0.18992 23.46879,-7.95784 27.71875,-16.84375 l 0,14.71875 38.65625,0 0,-123.96875 -41.59375,0 z M 735.03125,93.25 c 5.52045,0 9.9375,4.596632 9.9375,10.3125 l 0,16.375 c 0,5.71587 -4.41705,10.34375 -9.9375,10.34375 -5.52045,0 -9.96875,-4.62788 -9.96875,-10.34375 l 0,-16.375 c 0,-5.715868 4.4483,-10.3125 9.96875,-10.3125 z m -619.5625,-53.375 0,48.375 0,8.65625 0,12.96875 c 0,26.81363 21.59262,48.40625 48.40625,48.40625 l 19.65625,0 c 26.81363,0 48.40625,-21.59262 48.40625,-48.40625 l 0,-12.96875 0,-8.65625 0,-48.375 -44.03125,0 0,74.09375 c 0,7.62348 -6.12652,13.78125 -13.75,13.78125 -7.62348,0 -13.78125,-6.15777 -13.78125,-13.78125 l 0,-74.09375 -44.90625,0 z m 805.84375,-12.46875 -63.34375,85.6875 42.125,0 -31.53125,42.65625 53.53125,0 31.25,-42.25 -20.53125,0 31.34375,-42.40625 -32.3125,0 32.3125,-43.6875 -42.84375,0 z"
	style="fill:#018553;stroke:none;" />
</svg>
